<?xml version="1.0" standalone="no"?>
<!DOCTYPE svg PUBLIC "-//W3C//DTD SVG 20010904//EN"
 "http://www.w3.org/TR/2001/REC-SVG-20010904/DTD/svg10.dtd">
<svg version="1.0" xmlns="http://www.w3.org/2000/svg"
 width="700.000000pt" height="700.000000pt" viewBox="0 0 700.000000 700.000000"
 preserveAspectRatio="xMidYMid meet">
<metadata>
Created by potrace 1.11, written by Peter Selinger 2001-2013
</metadata>
<g transform="translate(0.000000,700.000000) scale(0.100000,-0.100000)"
fill="#000000" stroke="none">
<path d="M3720 6696 c-87 -23 -116 -48 -263 -226 -93 -112 -148 -178 -162
-194 -10 -10 -242 -289 -275 -330 -8 -10 -20 -23 -25 -30 -10 -10 -743 -890
-775 -930 -8 -10 -20 -23 -25 -30 -6 -6 -66 -78 -135 -161 -68 -82 -132 -159
-141 -170 -10 -11 -100 -119 -200 -240 -101 -121 -188 -225 -194 -231 -5 -6
-26 -30 -45 -54 -28 -35 -181 -219 -261 -315 -10 -11 -68 -81 -129 -155 -140
-169 -182 -220 -195 -234 -5 -6 -44 -51 -85 -101 -41 -49 -82 -99 -92 -110
-101 -121 -126 -169 -131 -255 -9 -134 90 -265 223 -296 19 -4 557 -8 1195 -9
l1160 0 -2 -35 c-2 -34 -22 -209 -28 -240 -1 -8 -6 -42 -9 -75 -7 -63 -63
-508 -71 -560 -2 -16 -7 -57 -10 -90 -3 -33 -8 -71 -10 -85 -3 -14 -7 -47 -10
-75 -3 -27 -8 -61 -10 -75 -2 -14 -7 -50 -10 -80 -3 -30 -13 -109 -21 -175 -9
-66 -17 -136 -19 -155 -3 -19 -7 -55 -10 -80 -4 -25 -8 -58 -10 -75 -2 -16 -9
-71 -16 -122 -20 -158 2 -254 75 -324 31 -30 97 -70 126 -76 82 -19 174 -3
240 41 30 20 142 144 278 311 15 19 1998 2398 2033 2440 10 11 92 110 183 220
92 110 174 209 184 220 9 11 39 47 67 80 27 33 57 69 66 80 170 202 201 245
220 305 50 154 -51 328 -211 366 -19 4 -555 9 -1190 10 -635 1 -1159 2 -1163
3 -5 0 -6 13 -3 29 3 15 8 52 11 82 3 30 12 107 21 170 18 141 22 170 29 240
3 30 8 66 10 80 2 14 7 45 10 70 3 25 7 61 10 80 8 61 14 111 30 245 9 72 18
144 20 160 8 54 77 609 82 660 3 28 8 68 12 90 15 78 13 175 -4 225 -45 137
-206 223 -345 186z m-344 -1263 c-6 -31 -12 -77 -22 -168 -3 -33 -8 -69 -10
-80 -2 -11 -7 -45 -10 -75 -3 -30 -7 -66 -9 -80 -2 -14 -9 -65 -15 -115 -6
-49 -13 -101 -15 -115 -2 -14 -7 -52 -10 -85 -4 -33 -8 -71 -10 -85 -4 -23
-13 -88 -21 -150 -1 -14 -6 -56 -9 -95 -4 -38 -9 -72 -10 -75 -8 -13 -20 -152
-20 -225 0 -64 5 -89 23 -125 33 -63 86 -115 146 -142 l51 -23 860 -3 c473 -1
937 -3 1030 -5 l171 -2 -151 -181 c-82 -100 -168 -203 -191 -230 -35 -42 -232
-278 -282 -339 -139 -168 -317 -381 -321 -385 -3 -3 -24 -27 -46 -55 -21 -27
-42 -52 -45 -55 -3 -3 -27 -32 -55 -65 -27 -33 -60 -71 -71 -85 -12 -14 -102
-122 -200 -240 -98 -118 -180 -217 -184 -220 -3 -3 -25 -30 -50 -60 -25 -30
-49 -60 -55 -66 -5 -7 -17 -20 -25 -30 -35 -44 -174 -210 -187 -224 -12 -13
-13 -11 -9 15 5 30 12 81 22 165 3 25 7 56 9 70 2 14 7 54 10 90 4 36 9 72 10
81 2 9 6 40 10 70 3 30 8 72 11 94 7 50 17 132 30 240 2 22 7 56 10 75 5 40
10 81 19 160 4 30 9 66 11 80 27 172 26 291 -4 350 -40 76 -108 136 -177 155
-16 5 -492 11 -1056 14 l-1026 6 776 931 c427 512 787 945 801 961 14 17 86
103 160 192 74 88 136 161 138 161 2 0 1 -12 -2 -27z"/>
</g>
</svg>
